<svg width="600" height="300" viewBox="0 0 600 300" fill="none" xmlns="http://www.w3.org/2000/svg">
<g clip-path="url(#clip0_251:187)">
<rect width="600" height="300" fill="#FAF9FB"/>
<circle cx="100" cy="300" r="100" fill="#33BF9E"/>
<rect x="250" y="118" width="125" height="143" fill="#F5B000"/>
<path d="M-28.383 182.701C-4.75113 198.206 6.05814 191.862 4.04476 163.67C2.03139 135.478 12.8407 129.134 36.4726 144.638C60.1045 160.143 70.9137 153.799 68.9004 125.607C66.887 97.4145 77.6962 91.0707 101.328 106.575C124.96 122.08 135.769 115.736 133.756 87.5439C131.743 59.3515 142.552 53.0077 166.184 68.5124C189.816 84.0171 200.625 77.6732 198.612 49.4809C196.598 21.2886 207.407 14.9447 231.039 30.4494C254.671 45.9541 265.481 39.6103 263.467 11.4179C261.454 -16.7744 272.263 -23.1183 295.895 -7.61359" stroke="#6C5FC7" stroke-width="13" stroke-linecap="round"/>
<ellipse cx="487.418" cy="123.159" rx="47.5" ry="120" transform="rotate(141.013 487.418 123.159)" fill="#F55459"/>
</g>
<defs>
<clipPath id="clip0_251:187">
<rect width="600" height="300" fill="white"/>
</clipPath>
</defs>
</svg>
